<mxfile host="65bd71144e">
    <diagram id="cDELUZk8xscHH5CDj4j-" name="PÃ¡gina-1">
        <mxGraphModel dx="1729" dy="411" grid="1" gridSize="10" guides="1" tooltips="1" connect="1" arrows="1" fold="1" page="1" pageScale="1" pageWidth="827" pageHeight="1169" math="0" shadow="0">
            <root>
                <mxCell id="0"/>
                <mxCell id="1" parent="0"/>
                <mxCell id="4" value="" style="edgeStyle=none;html=1;fontSize=14;fontColor=#000000;" edge="1" parent="1" source="2" target="3">
                    <mxGeometry relative="1" as="geometry"/>
                </mxCell>
                <mxCell id="2" value="&lt;font color=&quot;#000000&quot; style=&quot;font-size: 14px;&quot;&gt;&lt;b&gt;INICIO&lt;/b&gt;&lt;/font&gt;" style="ellipse;whiteSpace=wrap;html=1;fillColor=#00CC00;" vertex="1" parent="1">
                    <mxGeometry x="320" y="40" width="120" height="80" as="geometry"/>
                </mxCell>
                <mxCell id="7" value="" style="edgeStyle=none;html=1;fontSize=14;fontColor=#000000;" edge="1" parent="1" source="3" target="5">
                    <mxGeometry relative="1" as="geometry"/>
                </mxCell>
                <mxCell id="3" value="&lt;font style=&quot;font-size: 14px;&quot;&gt;&lt;b&gt;Gastos_Agua &quot;GAm3&quot;&lt;/b&gt;&lt;/font&gt;" style="shape=parallelogram;perimeter=parallelogramPerimeter;whiteSpace=wrap;html=1;fixedSize=1;fontSize=14;fontColor=#000000;fillColor=#FF8000;" vertex="1" parent="1">
                    <mxGeometry x="310" y="160" width="140" height="70" as="geometry"/>
                </mxCell>
                <mxCell id="11" style="edgeStyle=none;html=1;entryX=0.5;entryY=0;entryDx=0;entryDy=0;fontSize=14;fontColor=#000000;" edge="1" parent="1" source="5" target="6">
                    <mxGeometry relative="1" as="geometry">
                        <Array as="points">
                            <mxPoint x="200" y="320"/>
                        </Array>
                    </mxGeometry>
                </mxCell>
                <mxCell id="12" style="edgeStyle=none;html=1;entryX=0.5;entryY=0;entryDx=0;entryDy=0;fontSize=14;fontColor=#000000;" edge="1" parent="1" source="5" target="8">
                    <mxGeometry relative="1" as="geometry">
                        <Array as="points">
                            <mxPoint x="550" y="320"/>
                        </Array>
                    </mxGeometry>
                </mxCell>
                <mxCell id="5" value="&lt;b&gt;GAm3&amp;lt;50m3&lt;/b&gt;" style="rhombus;whiteSpace=wrap;html=1;fontSize=14;fontColor=#000000;fillColor=#FFFF33;" vertex="1" parent="1">
                    <mxGeometry x="330" y="280" width="100" height="90" as="geometry"/>
                </mxCell>
                <mxCell id="13" style="edgeStyle=none;html=1;entryX=0.5;entryY=0;entryDx=0;entryDy=0;fontSize=14;fontColor=#000000;" edge="1" parent="1" source="6" target="10">
                    <mxGeometry relative="1" as="geometry">
                        <Array as="points">
                            <mxPoint x="65" y="400"/>
                        </Array>
                    </mxGeometry>
                </mxCell>
                <mxCell id="14" style="edgeStyle=none;html=1;entryX=0.5;entryY=0;entryDx=0;entryDy=0;fontSize=14;fontColor=#000000;" edge="1" parent="1" source="6" target="9">
                    <mxGeometry relative="1" as="geometry">
                        <Array as="points">
                            <mxPoint x="340" y="400"/>
                        </Array>
                    </mxGeometry>
                </mxCell>
                <mxCell id="6" value="&lt;b&gt;GAm3&amp;lt;50m3&lt;/b&gt;" style="rhombus;whiteSpace=wrap;html=1;fontSize=14;fontColor=#000000;fillColor=#FFFF33;" vertex="1" parent="1">
                    <mxGeometry x="150" y="360" width="100" height="90" as="geometry"/>
                </mxCell>
                <mxCell id="20" style="edgeStyle=none;html=1;fontSize=14;fontColor=#000000;" edge="1" parent="1" source="8">
                    <mxGeometry relative="1" as="geometry">
                        <mxPoint x="340" y="732" as="targetPoint"/>
                        <Array as="points">
                            <mxPoint x="550" y="640"/>
                            <mxPoint x="340" y="640"/>
                        </Array>
                    </mxGeometry>
                </mxCell>
                <mxCell id="8" value="&lt;b&gt;GAm3=10000&lt;/b&gt;" style="rounded=0;whiteSpace=wrap;html=1;fontSize=14;fontColor=#000000;fillColor=#0066CC;" vertex="1" parent="1">
                    <mxGeometry x="490" y="375" width="120" height="60" as="geometry"/>
                </mxCell>
                <mxCell id="19" style="edgeStyle=none;html=1;entryX=0.5;entryY=0;entryDx=0;entryDy=0;fontSize=14;fontColor=#000000;" edge="1" parent="1" source="9" target="15">
                    <mxGeometry relative="1" as="geometry"/>
                </mxCell>
                <mxCell id="9" value="&lt;b&gt;GAm3*2000+10000&lt;/b&gt;" style="rounded=0;whiteSpace=wrap;html=1;fontSize=14;fontColor=#000000;fillColor=#0066CC;" vertex="1" parent="1">
                    <mxGeometry x="264" y="480" width="150" height="60" as="geometry"/>
                </mxCell>
                <mxCell id="18" style="edgeStyle=none;html=1;entryX=0.5;entryY=0;entryDx=0;entryDy=0;fontSize=14;fontColor=#000000;" edge="1" parent="1" source="10" target="15">
                    <mxGeometry relative="1" as="geometry">
                        <Array as="points">
                            <mxPoint x="65" y="640"/>
                            <mxPoint x="339" y="640"/>
                        </Array>
                    </mxGeometry>
                </mxCell>
                <mxCell id="10" value="&lt;b&gt;GAm3*3000+10000&lt;/b&gt;" style="rounded=0;whiteSpace=wrap;html=1;fontSize=14;fontColor=#000000;fillColor=#0066CC;" vertex="1" parent="1">
                    <mxGeometry x="-10" y="480" width="150" height="60" as="geometry"/>
                </mxCell>
                <mxCell id="17" value="" style="edgeStyle=none;html=1;fontSize=14;fontColor=#000000;" edge="1" parent="1" source="15" target="16">
                    <mxGeometry relative="1" as="geometry"/>
                </mxCell>
                <mxCell id="15" value="&lt;b&gt;Precio_venta&lt;/b&gt;" style="shape=document;whiteSpace=wrap;html=1;boundedLbl=1;fontSize=14;fontColor=#000000;fillColor=#FF8000;" vertex="1" parent="1">
                    <mxGeometry x="279" y="720" width="120" height="80" as="geometry"/>
                </mxCell>
                <mxCell id="16" value="&lt;b&gt;FIN&lt;/b&gt;" style="ellipse;whiteSpace=wrap;html=1;fontSize=14;fontColor=#000000;fillColor=#FF3333;" vertex="1" parent="1">
                    <mxGeometry x="279" y="860" width="120" height="80" as="geometry"/>
                </mxCell>
            </root>
        </mxGraphModel>
    </diagram>
</mxfile>